<?xml version="1.0" encoding="UTF-8" standalone="no"?>
<!-- Created with Inkscape (http://www.inkscape.org/) -->

<svg
   width="210mm"
   height="297mm"
   viewBox="0 0 210 297"
   version="1.1"
   id="svg1"
   xml:space="preserve"
   xmlns="http://www.w3.org/2000/svg"
   xmlns:svg="http://www.w3.org/2000/svg"><defs
     id="defs1" /><g
     id="layer1"><path
       style="color:#000000;font-style:normal;font-variant:normal;font-weight:normal;font-stretch:normal;font-size:medium;line-height:normal;font-family:sans-serif;font-variant-ligatures:normal;font-variant-position:normal;font-variant-caps:normal;font-variant-numeric:normal;font-variant-alternates:normal;font-variant-east-asian:normal;font-feature-settings:normal;font-variation-settings:normal;text-indent:0;text-align:start;text-decoration-line:none;text-decoration-style:solid;text-decoration-color:#000000;letter-spacing:normal;word-spacing:normal;text-transform:none;writing-mode:lr-tb;direction:ltr;text-orientation:mixed;dominant-baseline:auto;baseline-shift:baseline;text-anchor:start;white-space:normal;shape-padding:0;shape-margin:0;inline-size:0;clip-rule:nonzero;display:inline;overflow:visible;visibility:visible;isolation:auto;mix-blend-mode:normal;color-interpolation:sRGB;color-interpolation-filters:linearRGB;solid-color:#000000;solid-opacity:1;vector-effect:none;fill:#ffffff;fill-opacity:1;fill-rule:nonzero;stroke:none;stroke-linecap:butt;stroke-linejoin:miter;stroke-miterlimit:4;stroke-dasharray:none;stroke-dashoffset:0;stroke-opacity:1;-inkscape-stroke:none;color-rendering:auto;image-rendering:auto;shape-rendering:auto;text-rendering:auto;enable-background:accumulate;stop-color:#000000;stop-opacity:1"
       d="m 85.352645,135.08855 c 0.190337,-4.3762 -2.257135,-6.26122 -6.77857,-10.49022 -4.52144,-4.22901 -27.069883,-24.675705 -27.069883,-24.675705 0,0 -3.881106,-2.290487 -3.849293,-7.953084 0.03181,-5.662596 3.912918,-9.225578 7.507711,-9.257392 3.594796,-0.03181 78.95822,0.127251 78.95822,0.127251 l -1e-5,-6.9e-5 c 0,0 2.54499,0.127249 3.69023,1.654242 1.14525,1.526992 1.00387,6.272625 1.00387,6.272625 l 0.0225,4.678902 c 0,0 -0.4049,1.597125 -1.16972,2.271966 -0.76482,0.674841 -1.97954,1.462157 -3.17176,1.529641 -1.19222,0.06749 -50.770583,-0.02249 -50.770583,-0.02249 0,0 -3.981563,-0.06748 -4.498943,0.112474 -0.517379,0.179956 -1.147231,0.944779 -1.034756,2.339449 0.112471,1.39467 3.239238,3.32922 3.981563,4.00406 0.742326,0.67485 16.413226,15.01582 16.413226,15.01582 0,0 2.990353,2.29049 5.249033,6.17159 2.25868,3.88111 1.49518,6.07616 1.27249,8.27121 -0.22268,2.19505 -1.43155,4.00836 -3.40392,6.58516 -1.972359,2.57679 -9.861819,10.30719 -9.861819,10.30719 l -12.548332,13.19256 c 0,0 -3.79036,3.31797 -0.07873,4.19526 3.711627,0.8773 50.229241,-0.17734 54.523911,0.0772 4.29466,0.2545 8.62114,2.60861 8.84383,8.84383 0.22268,6.23522 -5.31266,8.68477 -9.16196,8.81201 -3.84929,0.12726 -75.586107,-0.0954 -75.586107,-0.0954 0,0 -3.555074,0.54941 -6.974271,-1.88001 -3.419197,-2.42943 -3.081776,-6.09607 -3.104271,-7.35578 -0.02249,-1.2597 0.814972,-3.74699 3.396705,-6.7934 1.623064,-1.91519 12.470329,-11.84893 22.193992,-21.42381 5.456469,-5.37298 11.828208,-10.01658 12.005076,-14.50528"
       id="path1" /></g></svg>
